# xmcd CD database file
#
# Track frame offsets:
#	150
#	15476
#	26823
#	40933
#	54348
#	69359
#	80047
#	95731
#	107708
#	120048
#	132828
#	144507
#	156746
#	170863
#	184377
#	195768
#
# Disc length: 2694 seconds
#
# Revision: 0
# Processed by: cddbd v1.4PL0 Copyright (c) Steve Scherf et al.
# Submitted via: CDex 1.50beta9
#
DISCID=da0a8410
DTITLE=THERESE RODGERS - 'Home Sweet Home'
DYEAR=1900
DGENRE=Country
TTITLE0=Excuse Me For Living
TTITLE1=My Hearts In Donegal
TTITLE2=Erin's Lovely Shore
TTITLE3=Carroll County Accident
TTITLE4=Wouldn't Want To Live
TTITLE5=Another Chance
TTITLE6=Hometown On The Foyle
TTITLE7=Big Tom Is Still The King
TTITLE8=Mama Say A Prayer
TTITLE9=Home Sweet Home
TTITLE10=Heart To Heart
TTITLE11=Down In Louisana
TTITLE12=Glenswilly
TTITLE13=Lifetime Love Affair
TTITLE14=Final Touch
TTITLE15=Irish Recards
EXTD=
EXTT0=
EXTT1=
EXTT2=
EXTT3=
EXTT4=
EXTT5=
EXTT6=
EXTT7=
EXTT8=
EXTT9=
EXTT10=
EXTT11=
EXTT12=
EXTT13=
EXTT14=
EXTT15=
PLAYORDER=
